<?xml version="1.0" encoding="utf-8"?>
<svg viewBox="18.925 1.254 462.15 497.492" xmlns="http://www.w3.org/2000/svg"><defs><clipPath id="E"><path d="M0 0h1458v376H0z" fill="var(--admin-lab-color-white)"/></clipPath></defs><g clip-path="url(#E)" id="object-0" transform="matrix(1.3231170177459717, 0, 0, 1.3231170177459717, 18.92475891113282, 1.253999948501587)"><path d="M18.404 57.827c-6.354 0-12.533-3.294-15.938-9.188C-2.61 39.853.403 28.618 9.195 23.545L45.961 2.334C54.754-2.739 65.997.272 71.073 9.058s2.064 20.021-6.729 25.094L27.579 55.363a18.31 18.31 0 0 1-9.175 2.464z"/><path d="M294.137 177.33L36.769 325.812v-63.635l201.909-116.553-36.583-21.106L9.194 235.663c-5.688 3.281-9.192 9.345-9.192 15.908V357.63a18.37 18.37 0 0 0 9.192 15.909A18.38 18.38 0 0 0 18.386 376a18.39 18.39 0 0 0 9.192-2.461l312.519-180.3c5.688-3.281 9.192-9.346 9.192-15.909s-3.504-12.627-9.192-15.908l-91.605-52.85a17.54 17.54 0 0 0-.594-.342l-91.635-52.867c-5.688-3.281-12.695-3.281-18.383 0L9.195 129.604c-8.793 5.073-11.805 16.307-6.729 25.094 3.405 5.893 9.584 9.188 15.938 9.188a18.32 18.32 0 0 0 9.174-2.464L147.07 92.484l147.067 84.847z"/><path d="M294.137 177.33L36.769 325.812v-63.635l201.909-116.553-36.583-21.106L9.194 235.663c-5.688 3.281-9.192 9.345-9.192 15.908V357.63a18.37 18.37 0 0 0 9.192 15.909A18.38 18.38 0 0 0 18.386 376a18.39 18.39 0 0 0 9.192-2.461l312.519-180.3c5.688-3.281 9.192-9.346 9.192-15.909s-3.504-12.627-9.192-15.908l-91.605-52.85a17.54 17.54 0 0 0-.594-.342l-91.635-52.867c-5.688-3.281-12.695-3.281-18.383 0L9.195 129.604c-8.793 5.073-11.805 16.307-6.729 25.094 3.405 5.893 9.584 9.188 15.938 9.188a18.32 18.32 0 0 0 9.174-2.464L147.07 92.484l147.067 84.847z"/><path d="M294.137 177.33L36.769 325.812v-63.635l11.642-6.72-20.835-30.386-18.382 10.592c-5.688 3.281-9.192 9.345-9.192 15.908V357.63a18.37 18.37 0 0 0 9.192 15.909A18.38 18.38 0 0 0 18.386 376a18.39 18.39 0 0 0 9.192-2.461l312.519-180.3c5.688-3.281 9.192-9.346 9.192-15.909s-3.504-12.627-9.192-15.908l-91.605-52.85a17.54 17.54 0 0 0-.594-.342l-91.635-52.867c-5.688-3.281-12.695-3.281-18.383 0L9.195 129.604c-8.793 5.073-11.805 16.307-6.729 25.094 3.405 5.893 9.584 9.188 15.938 9.188a18.32 18.32 0 0 0 9.174-2.464L147.07 92.484l147.067 84.847z"/></g></svg>