<svg xmlns="http://www.w3.org/2000/svg" viewBox="0 0 500 500"><path d="M 268.172 299.286 L 252.666 299.286 L 252.666 140.16 C 252.666 137.448 250.477 135.259 247.776 135.259 L 165.484 159.973 C 161.712 160.906 160.595 164.421 160.595 167.133 L 160.595 214.351 C 160.595 217.063 162.783 219.252 165.484 219.252 L 180.187 214.84 L 180.187 299.286 L 164.68 299.286 C 161.98 299.286 159.791 301.486 159.791 304.187 L 159.791 353.651 C 159.791 356.363 161.98 358.552 164.68 358.552 L 268.172 358.552 C 270.873 358.552 273.061 356.363 273.061 353.651 L 273.061 304.187 C 273.061 301.486 270.873 299.286 268.172 299.286 Z"/><path d="M 216.426 128.111 C 236.449 128.111 252.689 111.884 252.689 91.849 C 252.689 71.826 236.449 55.586 216.426 55.586 C 196.403 55.586 180.163 71.814 180.163 91.849 C 180.175 111.884 196.403 128.111 216.426 128.111 Z"/><path d="M 130.99 135.259 L 93.145 135.259 C 93.145 133.991 93.145 132.733 93.145 131.441 L 93.145 82.361 C 93.145 82.361 94.366 68.578 79.675 73.688 C 64.984 78.799 31.224 88.624 31.224 88.624 C 31.224 88.624 23.377 89.753 23.377 99.94 C 23.377 108.531 23.494 113.513 23.623 135.248 L 5.694 135.248 C 2.994 135.248 0.805 137.448 0.805 140.149 L 0.805 189.613 C 0.805 192.325 2.994 194.514 5.694 194.514 L 23.832 194.514 C 23.89 220.823 23.925 255.642 23.925 302.301 C 23.925 302.301 19.501 389.646 129.85 346.643 C 129.85 346.643 135.403 343.628 135.845 338.809 L 135.845 290.916 C 135.845 290.916 135.915 283.593 129.058 286.876 C 129.058 286.876 93.145 303.244 93.145 279.786 C 93.145 260.962 93.145 260.043 93.145 194.514 L 131.002 194.514 C 133.703 194.514 135.891 192.313 135.891 189.613 L 135.891 140.16 C 135.879 137.459 133.691 135.259 130.99 135.259 Z"/><path d="M 402.827 135.259 C 391.012 135.259 379.685 137.669 369.196 142.07 L 369.196 139.997 C 369.196 137.285 367.007 135.096 364.307 135.096 L 280.85 135.096 C 278.149 135.096 275.96 137.296 275.96 139.997 L 275.96 189.461 C 275.96 192.174 278.149 194.362 280.85 194.362 L 296.717 194.362 L 296.717 386.444 L 280.85 386.444 C 278.149 386.444 275.96 388.645 275.96 391.345 L 275.96 440.81 C 275.96 443.522 278.149 445.723 280.85 445.723 L 384.702 445.723 C 387.403 445.723 389.591 443.522 389.591 440.81 L 389.591 391.345 C 389.591 388.633 387.403 386.444 384.702 386.444 L 369.196 386.444 L 369.196 351.754 C 379.685 356.154 391.012 358.564 402.827 358.564 C 456.715 358.564 500.406 308.575 500.406 246.912 C 500.406 185.247 456.715 135.259 402.827 135.259 Z M 403.933 300.671 C 384.609 300.59 369.056 276.445 369.196 246.761 C 369.324 217.075 385.098 193.07 404.411 193.151 C 423.724 193.233 439.288 217.378 439.149 247.063 C 439.02 276.76 423.259 300.752 403.933 300.671 Z"/></svg>